PathFileType	4	(X/Y/Z)	Patient4_TMGait_0pt2_01_left_20.trc.trc
DataRate	CameraRate	NumFrames	NumMarkers	Units	OrigDataRate	OrigDataStartFrame	OrigNumFrames
44.164037854890	44.164037854890	4	33	mm	44.164037854890	71	       141
Frame#	Time	Sacral			L.Shoulder			Chest			R.Shoulder			Neck			R.ASIS			L.ASIS			R.Thigh.Superior			R.Thigh.Lateral			R.Thigh.Inferior			R.Patella			L.Thigh.Superior			L.Thigh.Lateral			L.Thigh.Inferior			L.Patella			L.Shank.Superior			L.Shank.Lateral			L.Shank.Inferior			R.Shank.Superior			R.Shank.Lateral			R.Shank.Inferior			R.Heel			R.Midfoot.Superior			R.Midfoot.Lateral			R.Toe			L.Heel			L.Midfoot.Lateral			L.Midfoot.Superior			L.Toe			L.Elbow			L.Wrist			R.Elbow			R.Wrist			
		X1	Y1	Z1	X2	Y2	Z2	X3	Y3	Z3	X4	Y4	Z4	X5	Y5	Z5	X6	Y6	Z6	X7	Y7	Z7	X8	Y8	Z8	X9	Y9	Z9	X10	Y10	Z10	X11	Y11	Z11	X12	Y12	Z12	X13	Y13	Z13	X14	Y14	Z14	X15	Y15	Z15	X16	Y16	Z16	X17	Y17	Z17	X18	Y18	Z18	X19	Y19	Z19	X20	Y20	Z20	X21	Y21	Z21	X22	Y22	Z22	X23	Y23	Z23	X24	Y24	Z24	X25	Y25	Z25	X26	Y26	Z26	X27	Y27	Z27	X28	Y28	Z28	X29	Y29	Z29	X30	Y30	Z30	X31	Y31	Z31	X32	Y32	Z32	X33	Y33	Z33	

71	47.595000000000	711.277382661918	1008.388725779144	417.764372665391	958.550879690464	1433.372419111869	304.104884709405	1012.933655768524	1348.037351184186	479.511061073642	892.858625489498	1416.830191833721	632.521645336500	907.039086576545	1486.672294217693	459.370798977516	909.665601565542	934.509530061258	581.301249787914	953.479756796623	952.558674518455	310.448695735055	987.951062352060	761.212401329850	551.240505669665	934.552817544483	640.318094032222	615.954115015755	1024.073254694971	601.344031925601	539.121121839424	1049.470523850144	508.543074705892	557.439192480593	972.430084919623	729.541013200042	362.751360879524	888.540745566150	613.622688142397	289.117726714099	941.972732863198	535.841000724461	378.293499051205	933.113320892054	464.962487054401	387.673432338794	891.082484608257	396.269453193968	370.416695392229	793.247870074927	298.234893667943	304.020617141090	807.207130730865	182.290939318252	382.260985296466	1014.892372060563	419.057467081860	570.235290869866	937.037530441652	322.478793997414	638.245706990662	984.144150427399	221.312230816688	588.843813175655	852.578335349717	48.174088477214	569.568012536871	1023.732287805065	108.370647814323	605.337327028819	939.039211378634	39.150574960772	641.257301309750	1145.284662841666	62.854325132439	627.550850121986	652.399496353089	39.285770006385	402.824549777505	733.646011252621	36.118156653819	330.189283032813	815.986471436537	95.248409048684	366.341867183077	945.060240492461	39.651753040565	347.104725850422	1081.729669657430	1149.989165335318	121.946959719192	1332.337228793520	1082.752038398726	152.991988370695	713.933548613135	1107.394062302865	686.392991860363	674.381002326852	849.397895806027	690.797354833867	
72	47.617642857143	713.444111282387	1008.683003337108	420.399535144271	962.127492183425	1433.336673151456	309.296159130013	1014.121274248781	1348.455308276557	485.581775650448	892.075110171015	1417.926338075242	636.768192557541	908.750597880086	1487.015830018229	463.702972216664	909.763902377286	934.687298673770	586.420153869063	956.736468128547	952.615313951067	315.987395796058	987.099464292734	760.393935304662	557.474908777613	931.674783967382	639.612073269059	621.019177110200	1022.072627562000	600.636521442571	545.513298372328	1046.587171961447	509.377124084239	562.898129170585	971.419657622773	728.025579248889	366.380935316392	885.636411623471	614.349077409450	290.698254907338	936.849757043549	534.962438444019	379.226323071753	926.610611178901	464.812057030578	388.137336608684	885.186392275607	396.611921738980	370.639763058048	787.784023506717	298.332983019620	303.926046839482	802.036567522953	182.426837072882	382.334371258225	1015.548680380970	419.012139986141	574.877947169716	941.543380038772	319.042428051758	643.127774191407	991.669282175501	219.657834224947	592.443729266834	864.899846673880	43.531273552282	573.571319936218	1035.192045124815	106.740585139240	607.478229294262	952.270692288010	35.756789949853	644.264944773954	1158.043822565350	63.436063918817	628.009736572062	647.690524056003	38.963804435094	402.731637714646	728.953099709502	35.898149411418	330.088077018091	811.239096368343	95.220921389175	366.271036812227	940.398723002307	39.747445461303	347.183116561552	1091.832632948028	1153.284282521028	128.509028664657	1345.570574195420	1101.687573379223	162.421512394623	712.095624670843	1108.944873055064	686.370400828591	674.369575008021	850.282285575357	687.791551117302	
73	47.640285714286	716.018033574326	1008.473151485072	423.596669465066	965.468009452812	1432.937575657198	314.833544595241	1015.481352941575	1348.525153779034	491.852334893272	891.768631531132	1418.531975092057	641.465856104639	910.497735024838	1486.960012992013	468.468725707678	910.575903458603	934.318727326967	591.709290964971	960.247930314319	952.383965456557	321.678326103565	987.158958556193	759.157262226297	563.373211544864	929.981436578230	638.423181633372	625.656354964482	1021.152566473959	599.455891848541	551.283239090209	1044.553805110529	509.280528532729	567.731565584791	970.926331273020	726.334281277072	369.945864306329	883.147697630029	614.898508912302	292.424117618658	932.322442924360	533.970009930767	380.168017067575	920.751383723745	464.486276521416	388.641968624669	879.820794282392	396.794256080960	370.941801952135	782.639034535590	298.478617149817	303.923966027808	797.073520987433	182.536563449836	382.390911810484	1016.062983175042	418.303168818530	578.880217190951	944.749014189434	316.148186520866	647.080527586227	996.555421954747	218.172317838239	595.172003263409	872.609204403417	41.031935945630	576.293038689337	1042.364734372818	105.336153664664	608.904319419171	960.349282583102	34.051198939166	646.423826360735	1165.607931164492	62.981096768725	628.606355432494	643.001858902717	38.728127318190	402.640086282580	724.287806200152	35.716867012807	330.002608237577	806.536163910611	95.212369746596	366.180134112950	935.752201798249	39.816650376265	347.249731794068	1101.155335992488	1155.799884499090	135.648782711986	1356.928220727321	1118.831124373501	172.272952502525	712.119746739956	1109.183083582062	687.538740537033	676.986666580857	849.806978183869	686.414937389014	
74	47.662928571429	718.950616750215	1007.906156525273	427.323979704240	968.646646539023	1432.277385957285	320.676677872990	1017.052853485548	1348.327111076531	498.307485416643	891.946021688686	1418.745779428060	646.586205016062	912.309019504720	1486.603429192867	473.632317088929	912.078852074893	933.533575723418	597.161047383694	963.964815357283	951.954207910720	327.478843953046	988.125859588176	757.675448206320	568.843939366568	929.522917223847	636.898477225945	629.807729870231	1021.325780962459	597.956934801869	556.326367474292	1043.506604416514	508.430252260725	571.822103809061	970.884346435070	724.540868723870	373.419728401392	881.002382060495	615.345179682083	294.289837909286	928.340719940775	532.937698900516	381.121347479715	915.494834185838	464.056362946410	389.188340783386	874.943760001185	396.886782535512	371.323440602008	777.773685948899	298.736386912683	304.019029013129	792.312919803486	182.671293239315	382.422348657124	1016.596219969271	417.053664418161	582.147618851660	946.875592419926	313.733406715717	650.095459792525	999.122579827664	216.754853057435	596.977154873516	876.115641212698	40.132485849482	577.814952369615	1045.714780716907	104.061957089023	609.580900592949	963.828396315983	33.600121836018	647.744179549659	1168.702227708222	61.600508186640	629.163814994792	638.341695507623	38.629601760824	402.539357100422	719.658632087448	35.603547038563	329.930137667571	801.895985932074	95.238994275079	366.059576518984	931.125062120200	39.849134329948	347.302139347552	1109.695498351776	1157.592315339862	143.252767435003	1366.566237479513	1133.959153680237	182.399995385356	713.786349277879	1108.324864177573	689.959008783098	681.790790861897	848.251093205670	686.919027680243	
